HIERARCHY
ROOT hips
{
  OFFSET -0.00735851563513279 12.18665635585785 0.12248523347079754
  CHANNELS 6 Xposition Yposition Zposition Yrotation Xrotation Zrotation
  JOINT spine
  {
    OFFSET 1.0244548320770264e-7 0.5955291986465454 0
    CHANNELS 3 Yrotation Xrotation Zrotation
    JOINT chest
    {
      OFFSET 0 1.2719063864449713 0
      CHANNELS 3 Yrotation Xrotation Zrotation
      JOINT upperChest
      {
        OFFSET 0 1.490802666915459 0
        CHANNELS 3 Yrotation Xrotation Zrotation
        JOINT neck
        {
          OFFSET 0 1.3131953345263365 0
          CHANNELS 3 Yrotation Xrotation Zrotation
          JOINT head
          {
            OFFSET 0 0.8653679716847534 0
            CHANNELS 3 Yrotation Xrotation Zrotation
            JOINT leftEye
            {
              OFFSET 0.20629723300226033 0.6721053123474121 0.3036841657012701
              CHANNELS 3 Yrotation Xrotation Zrotation
              End Site
              {
                OFFSET 0.20629723300226033 0.6721053123474121 0.3036841657012701
              }
            }
            JOINT rightEye
            {
              OFFSET -0.20629652100615203 0.6721066236495972 0.30368443205952644
              CHANNELS 3 Yrotation Xrotation Zrotation
              End Site
              {
                OFFSET -0.20629652100615203 0.6721066236495972 0.30368443205952644
              }
            }
          }
        }
        JOINT leftShoulder
        {
          OFFSET 0.24624172446783632 0.959903359413147 0
          CHANNELS 3 Yrotation Xrotation Zrotation
          JOINT leftUpperArm
          {
            OFFSET 0.9650355761446514 0 0
            CHANNELS 3 Yrotation Xrotation Zrotation
            JOINT leftLowerArm
            {
              OFFSET 2.4419134471639827 0 0
              CHANNELS 3 Yrotation Xrotation Zrotation
              JOINT leftHand
              {
                OFFSET 2.3874557408809456 0 0
                CHANNELS 3 Yrotation Xrotation Zrotation
                JOINT leftIndexProximal
                {
                  OFFSET 0.7029628753662109 0.06118142604827881 0.23586585000157356
                  CHANNELS 3 Yrotation Xrotation Zrotation
                  JOINT leftIndexIntermediate
                  {
                    OFFSET 0.36102771759033203 -0.001475214958190918 0.056637559086084366
                    CHANNELS 3 Yrotation Xrotation Zrotation
                    JOINT leftIndexDistal
                    {
                      OFFSET 0.22344785928726196 -0.007408857345581055 0.02531452476978302
                      CHANNELS 3 Yrotation Xrotation Zrotation
                      End Site
                      {
                        OFFSET 0.22344785928726196 -0.007408857345581055 0.02531452476978302
                      }
                    }
                  }
                }
                JOINT leftLittleProximal
                {
                  OFFSET 0.6958752870559692 0.034375786781311035 -0.29472956992685795
                  CHANNELS 3 Yrotation Xrotation Zrotation
                  JOINT leftLittleIntermediate
                  {
                    OFFSET 0.34538060426712036 -0.0030041933059692383 0.00024324655532836914
                    CHANNELS 3 Yrotation Xrotation Zrotation
                    JOINT leftLittleDistal
                    {
                      OFFSET 0.19865047931671143 0.00746917724609375 -0.010377676226198673
                      CHANNELS 3 Yrotation Xrotation Zrotation
                      End Site
                      {
                        OFFSET 0.19865047931671143 0.00746917724609375 -0.010377676226198673
                      }
                    }
                  }
                }
                JOINT leftMiddleProximal
                {
                  OFFSET 0.7272291779518127 0.09209799766540527 0.05257739871740341
                  CHANNELS 3 Yrotation Xrotation Zrotation
                  JOINT leftMiddleIntermediate
                  {
                    OFFSET 0.40590834617614746 -0.014838695526123047 0.026817932724952698
                    CHANNELS 3 Yrotation Xrotation Zrotation
                    JOINT leftMiddleDistal
                    {
                      OFFSET 0.2495119571685791 -0.026458144187927246 0.010310646146535873
                      CHANNELS 3 Yrotation Xrotation Zrotation
                      End Site
                      {
                        OFFSET 0.2495119571685791 -0.026458144187927246 0.010310646146535873
                      }
                    }
                  }
                }
                JOINT leftRingProximal
                {
                  OFFSET 0.7334893345832825 0.09136629104614258 -0.1205735495314002
                  CHANNELS 3 Yrotation Xrotation Zrotation
                  JOINT leftRingIntermediate
                  {
                    OFFSET 0.3775520920753479 -0.005917906761169434 0.001896639820188284
                    CHANNELS 3 Yrotation Xrotation Zrotation
                    JOINT leftRingDistal
                    {
                      OFFSET 0.2177620530128479 0.007703900337219238 0.0027355607599020004
                      CHANNELS 3 Yrotation Xrotation Zrotation
                      End Site
                      {
                        OFFSET 0.2177620530128479 0.007703900337219238 0.0027355607599020004
                      }
                    }
                  }
                }
                JOINT leftThumbProximal
                {
                  OFFSET 0.02235114574432373 -0.07603192329406738 0.1950724683701992
                  CHANNELS 3 Yrotation Xrotation Zrotation
                  JOINT leftThumbIntermediate
                  {
                    OFFSET 0.3551589846611023 -0.02970755100250244 0.36741212010383606
                    CHANNELS 3 Yrotation Xrotation Zrotation
                    JOINT leftThumbDistal
                    {
                      OFFSET 0.23456048965454102 -0.016631245613098145 0.2093813568353653
                      CHANNELS 3 Yrotation Xrotation Zrotation
                      End Site
                      {
                        OFFSET 0.23456048965454102 -0.016631245613098145 0.2093813568353653
                      }
                    }
                  }
                }
              }
            }
          }
        }
        JOINT rightShoulder
        {
          OFFSET -0.24624088185373694 0.9600239992141724 0
          CHANNELS 3 Yrotation Xrotation Zrotation
          JOINT rightUpperArm
          {
            OFFSET -0.9650300767908009 0 0
            CHANNELS 3 Yrotation Xrotation Zrotation
            JOINT rightLowerArm
            {
              OFFSET -2.4420125187833426 0 0
              CHANNELS 3 Yrotation Xrotation Zrotation
              JOINT rightHand
              {
                OFFSET -2.3874255620910265 0 0
                CHANNELS 3 Yrotation Xrotation Zrotation
                JOINT rightIndexProximal
                {
                  OFFSET -0.7029609084129333 0.06117355823516846 0.23587234504520893
                  CHANNELS 3 Yrotation Xrotation Zrotation
                  JOINT rightIndexIntermediate
                  {
                    OFFSET -0.3610270619392395 -0.0014804601669311523 0.05664427950978279
                    CHANNELS 3 Yrotation Xrotation Zrotation
                    JOINT rightIndexDistal
                    {
                      OFFSET -0.2234485149383545 -0.0074127912521362305 0.025317884981632233
                      CHANNELS 3 Yrotation Xrotation Zrotation
                      End Site
                      {
                        OFFSET -0.2234485149383545 -0.0074127912521362305 0.025317884981632233
                      }
                    }
                  }
                }
                JOINT rightLittleProximal
                {
                  OFFSET -0.6958779096603394 0.034366607666015625 -0.29472311586141586
                  CHANNELS 3 Yrotation Xrotation Zrotation
                  JOINT rightLittleIntermediate
                  {
                    OFFSET -0.3453786373138428 -0.003008127212524414 0.00025422871112823486
                    CHANNELS 3 Yrotation Xrotation Zrotation
                    JOINT rightLittleDistal
                    {
                      OFFSET -0.19865179061889648 0.00746917724609375 -0.010371447540819645
                      CHANNELS 3 Yrotation Xrotation Zrotation
                      End Site
                      {
                        OFFSET -0.19865179061889648 0.00746917724609375 -0.010371447540819645
                      }
                    }
                  }
                }
                JOINT rightMiddleProximal
                {
                  OFFSET -0.7272304892539978 0.09209012985229492 0.05258418060839176
                  CHANNELS 3 Yrotation Xrotation Zrotation
                  JOINT rightMiddleIntermediate
                  {
                    OFFSET -0.4059063792228699 -0.014843940734863281 0.026821313425898552
                    CHANNELS 3 Yrotation Xrotation Zrotation
                    JOINT rightMiddleDistal
                    {
                      OFFSET -0.24951326847076416 -0.026460766792297363 0.010313207283616066
                      CHANNELS 3 Yrotation Xrotation Zrotation
                      End Site
                      {
                        OFFSET -0.24951326847076416 -0.026460766792297363 0.010313207283616066
                      }
                    }
                  }
                }
                JOINT rightRingProximal
                {
                  OFFSET -0.7334906458854675 0.09135580062866211 -0.12056719791144133
                  CHANNELS 3 Yrotation Xrotation Zrotation
                  JOINT rightRingIntermediate
                  {
                    OFFSET -0.37755340337753296 -0.005923151969909668 0.0019026175141334534
                    CHANNELS 3 Yrotation Xrotation Zrotation
                    JOINT rightRingDistal
                    {
                      OFFSET -0.21775943040847778 0.007701277732849121 0.0027383523993194103
                      CHANNELS 3 Yrotation Xrotation Zrotation
                      End Site
                      {
                        OFFSET -0.21775943040847778 0.007701277732849121 0.0027383523993194103
                      }
                    }
                  }
                }
                JOINT rightThumbProximal
                {
                  OFFSET -0.022347867488861084 -0.07603061199188232 0.19507363624870777
                  CHANNELS 3 Yrotation Xrotation Zrotation
                  JOINT rightThumbIntermediate
                  {
                    OFFSET -0.3550455570220947 -0.029461026191711426 0.36754218488931656
                    CHANNELS 3 Yrotation Xrotation Zrotation
                    JOINT rightThumbDistal
                    {
                      OFFSET -0.23451131582260132 -0.016489624977111816 0.20944765955209732
                      CHANNELS 3 Yrotation Xrotation Zrotation
                      End Site
                      {
                        OFFSET -0.23451131582260132 -0.016489624977111816 0.20944765955209732
                      }
                    }
                  }
                }
              }
            }
          }
        }
      }
    }
  }
  JOINT leftUpperLeg
  {
    OFFSET 0.8483456987887621 -0.42556869983673096 0
    CHANNELS 3 Yrotation Xrotation Zrotation
    JOINT leftLowerLeg
    {
      OFFSET 0 -4.6702112872869534 0
      CHANNELS 3 Yrotation Xrotation Zrotation
      JOINT leftFoot
      {
        OFFSET -0.13096565008163452 -5.202569782733917 -0.2985280640423298
        CHANNELS 3 Yrotation Xrotation Zrotation
        JOINT leftToes
        {
          OFFSET 0.01423943042755127 -0.7568342834711075 1.213271364569664
          CHANNELS 3 Yrotation Xrotation Zrotation
          End Site
          {
            OFFSET 0.01423943042755127 -0.7568342834711075 1.213271364569664
          }
        }
      }
    }
  }
  JOINT rightUpperLeg
  {
    OFFSET -0.8483468051999807 -0.42556607723236084 0
    CHANNELS 3 Yrotation Xrotation Zrotation
    JOINT rightLowerLeg
    {
      OFFSET 0 -4.670219469177788 0
      CHANNELS 3 Yrotation Xrotation Zrotation
      JOINT rightFoot
      {
        OFFSET 0.13097601756453514 -5.202573716640472 -0.29853164963424206
        CHANNELS 3 Yrotation Xrotation Zrotation
        JOINT rightToes
        {
          OFFSET -0.014232628047466278 -0.7568355947732925 1.213272675871849
          CHANNELS 3 Yrotation Xrotation Zrotation
          End Site
          {
            OFFSET -0.014232628047466278 -0.7568355947732925 1.213272675871849
          }
        }
      }
    }
  }
}
MOTION
Frames: 4
Frame Time: 0.03333333333333333
0 -6.314872654878181 -3.220707255672921 0 88.00002218211773 0 0 29.456016262409186 0 0 -8.116872232721015 0 0 0 0 0 4.260856556777994 0 0 -13.599999921932502 0 0 0 0 0 0 0 20.327851950381717 -29.980982747858825 -35.24223777697205 -119.04792014083307 -45.22672320332824 21.154385684431606 -53.72846480259787 65.6319424032309 -17.179822396370366 0 0 7.600000009516401 0 0 0 0 0 0 0 0 0 0 0 0 0 0 0 0 0 0 0 0 0 0 0 0 0 0 0 0 0 0 0 0 0 0 0 0 0 0 0 0 0 0 0 0 0 -20.327851950381717 -29.980982747858825 35.24223777697205 119.04792014083307 -45.22672320332824 -21.154385684431606 53.72846480259787 65.6319424032309 17.179822396370366 0 0 -7.600000009516401 0 0 0 0 0 0 0 0 0 0 0 0 0 0 0 0 0 0 0 0 0 0 0 0 0 0 0 0 0 0 0 0 0 0 0 0 0 0 0 0 0 0 0 0 0 -178.7385262415583 -60.22203523644646 -166.92004416106278 173.8617792147995 46.339559180463446 171.54458970106566 0 -59.00000031816854 0 0 0 0 178.7385262415583 -60.22203523644646 166.92004416106278 -173.8617792147995 46.339559180463446 -171.54458970106566 0 -59.00000031816854 0 0 0 0
0 -6.314872654878181 -3.220707255672921 0 88.00002218211773 0 0 29.189347953556933 0 0 -7.816872570542223 0 0 0 0 0 5.327523828858645 0 0 -13.199999573333983 0 0 0 0 0 0 0 20.327851950381717 -29.980982747858825 -35.24223777697205 -119.04792014083307 -45.22672320332824 21.154385684431606 -53.62167206056207 65.48859839810567 -17.082598287535095 0 0 7.450000425723557 0 0 0 0 0 0 0 0 0 0 0 0 0 0 0 0 0 0 0 0 0 0 0 0 0 0 0 0 0 0 0 0 0 0 0 0 0 0 0 0 0 0 0 0 0 -20.327851950381717 -29.980982747858825 35.24223777697205 119.04792014083307 -45.22672320332824 -21.154385684431606 53.62167206056207 65.48859839810567 17.082598287535095 0 0 -7.450000425723557 0 0 0 0 0 0 0 0 0 0 0 0 0 0 0 0 0 0 0 0 0 0 0 0 0 0 0 0 0 0 0 0 0 0 0 0 0 0 0 0 0 0 0 0 0 -179.055485743634 -60.16765365788932 -166.6450122200455 173.8617792147995 46.339559180463446 171.54458970106566 0 -59.00000031816854 0 0 0 0 179.055485743634 -60.16765365788932 166.6450122200455 -173.8617792147995 46.339559180463446 -171.54458970106566 0 -59.00000031816854 0 0 0 0
0 -6.314872654878181 -3.220707255672921 0 88.00002218211773 0 0 28.922682540479325 0 0 -7.516872244307084 0 0 0 0 0 6.394190686735529 0 0 -12.800000003371535 0 0 0 0 0 0 0 20.327851950381717 -29.980982747858825 -35.24223777697205 -119.04792014083307 -45.22672320332824 21.154385684431606 -53.51604275693173 65.34517700369183 -16.986544969860482 0 0 7.300000527000313 0 0 0 0 0 0 0 0 0 0 0 0 0 0 0 0 0 0 0 0 0 0 0 0 0 0 0 0 0 0 0 0 0 0 0 0 0 0 0 0 0 0 0 0 0 -20.327851950381717 -29.980982747858825 35.24223777697205 119.04792014083307 -45.22672320332824 -21.154385684431606 53.51604275693173 65.34517700369183 16.986544969860482 0 0 -7.300000527000313 0 0 0 0 0 0 0 0 0 0 0 0 0 0 0 0 0 0 0 0 0 0 0 0 0 0 0 0 0 0 0 0 0 0 0 0 0 0 0 0 0 0 0 0 0 -179.37139046787863 -60.11251894577334 -166.3710449087706 173.8617792147995 46.339559180463446 171.54458970106566 0 -59.00000031816854 0 0 0 0 179.37139046787863 -60.11251894577334 166.3710449087706 -173.8617792147995 46.339559180463446 -171.54458970106566 0 -59.00000031816854 0 0 0 0
0 -6.314872654878181 -3.220707255672921 0 88.00002218211773 0 0 28.65601619251623 0 0 -7.216872505688808 0 0 0 0 0 7.460856463610702 0 0 -12.40000011639524 0 0 0 0 0 0 0 20.327851950381717 -29.980982747858825 -35.24223777697205 -119.04792014083307 -45.22672320332824 21.154385684431606 -53.41156305581744 65.20168673096266 -16.891643318430827 0 0 7.150000132583977 0 0 0 0 0 0 0 0 0 0 0 0 0 0 0 0 0 0 0 0 0 0 0 0 0 0 0 0 0 0 0 0 0 0 0 0 0 0 0 0 0 0 0 0 0 -20.327851950381717 -29.980982747858825 35.24223777697205 119.04792014083307 -45.22672320332824 -21.154385684431606 53.41156305581744 65.20168673096266 16.891643318430827 0 0 -7.150000132583977 0 0 0 0 0 0 0 0 0 0 0 0 0 0 0 0 0 0 0 0 0 0 0 0 0 0 0 0 0 0 0 0 0 0 0 0 0 0 0 0 0 0 0 0 0 -179.6862300443887 -60.05663482672396 -166.09815359935487 173.8617792147995 46.339559180463446 171.54458970106566 0 -59.00000031816854 0 0 0 0 179.6862300443887 -60.05663482672396 166.09815359935487 -173.8617792147995 46.339559180463446 -171.54458970106566 0 -59.00000031816854 0 0 0 0
